<?xml version="1.0" encoding="UTF-8" standalone="no"?>
<svg
   xmlns:dc="http://purl.org/dc/elements/1.1/"
   xmlns:cc="http://creativecommons.org/ns#"
   xmlns:rdf="http://www.w3.org/1999/02/22-rdf-syntax-ns#"
   xmlns:svg="http://www.w3.org/2000/svg"
   xmlns="http://www.w3.org/2000/svg"
   xmlns:sodipodi="http://sodipodi.sourceforge.net/DTD/sodipodi-0.dtd"
   xmlns:inkscape="http://www.inkscape.org/namespaces/inkscape"
   width="48"
   height="48"
   version="1.1"
   viewBox="0 0 48 48"
   id="svg9"
   sodipodi:docname="text.svg"
   inkscape:version="0.92.1 r15371">
  <metadata
     id="metadata15">
    <rdf:RDF>
      <cc:Work
         rdf:about="">
        <dc:format>image/svg+xml</dc:format>
        <dc:type
           rdf:resource="http://purl.org/dc/dcmitype/StillImage" />
        <dc:title></dc:title>
      </cc:Work>
    </rdf:RDF>
  </metadata>
  <defs
     id="defs13" />
  <sodipodi:namedview
     pagecolor="#ffffff"
     bordercolor="#666666"
     borderopacity="1"
     objecttolerance="10"
     gridtolerance="10"
     guidetolerance="10"
     inkscape:pageopacity="0"
     inkscape:pageshadow="2"
     inkscape:window-width="1920"
     inkscape:window-height="1027"
     id="namedview11"
     showgrid="false"
     inkscape:zoom="4.9166667"
     inkscape:cx="24"
     inkscape:cy="24"
     inkscape:window-x="-8"
     inkscape:window-y="-8"
     inkscape:window-maximized="1"
     inkscape:current-layer="g7" />
  <g
     transform="translate(0 -284.3)"
     id="g7">
    <g
       aria-label="PHP -MySQL - JavaScript - jQuery - AJAX - C++ - C# - Linux Servers -"
       style="font-size:2.80000019px;line-height:1.25;font-family:sans-serif;letter-spacing:0px;word-spacing:0px;fill:#ffffff;fill-opacity:1"
       id="text5">
      <path
         d="m 41.357132,309.97764 q -0.135168,-0.007 -0.248733,-0.0609 -0.11227,-0.0524 -0.192511,-0.14146 -0.09966,-0.11061 -0.145436,-0.25674 -0.04442,-0.14606 -0.03304,-0.36452 l 0.01408,-0.27033 -0.757762,-0.0395 0.01408,-0.27034 2.032987,0.1059 -0.02873,0.55159 q -0.0095,0.18296 -0.04755,0.3083 -0.03665,0.12541 -0.107308,0.2203 -0.08387,0.112 -0.203195,0.16876 -0.119396,0.0581 -0.29689,0.0489 z m 0.0078,-0.28161 q 0.105131,0.005 0.184875,-0.0273 0.07975,-0.0328 0.132808,-0.10534 0.04574,-0.0633 0.0679,-0.14706 0.02345,-0.0823 0.03014,-0.21063 l 0.01394,-0.26761 -0.812375,-0.0423 -0.01188,0.22801 q -0.0085,0.16384 0.0148,0.26773 0.0247,0.10397 0.08553,0.17148 0.06219,0.0676 0.133205,0.0973 0.07094,0.0311 0.161053,0.0358 z"
         style="font-size:2.80000019px;fill:#ffffff;fill-opacity:1"
         id="path4492" />
      <path
         d="m 39.636254,311.79631 0.04587,-0.26678 0.982265,0.16889 0.17214,-1.00113 -0.982265,-0.16889 0.04587,-0.26679 2.0063,0.34497 -0.04587,0.26679 -0.786889,-0.1353 -0.17214,1.00113 0.78689,0.1353 -0.04587,0.26679 z"
         style="font-size:2.80000019px;fill:#ffffff;fill-opacity:1"
         id="path4494" />
      <path
         d="m 40.480243,314.01047 q -0.129715,-0.0387 -0.227423,-0.11769 -0.09679,-0.0773 -0.153818,-0.18279 -0.07083,-0.13095 -0.08093,-0.28375 -0.0088,-0.15241 0.05367,-0.36206 l 0.0773,-0.25943 -0.727193,-0.21668 0.0773,-0.25943 1.950975,0.58133 -0.157728,0.52934 q -0.05231,0.17558 -0.11876,0.28845 -0.06513,0.11327 -0.156137,0.18887 -0.10787,0.0891 -0.237201,0.1162 -0.129721,0.0284 -0.300055,-0.0224 z m 0.07387,-0.27186 q 0.10089,0.0301 0.186116,0.0169 0.08523,-0.0131 0.153868,-0.0711 0.05936,-0.0508 0.100598,-0.12695 0.04216,-0.0745 0.07886,-0.19763 l 0.07652,-0.25681 -0.779604,-0.2323 -0.0652,0.21882 q -0.04685,0.15723 -0.04862,0.2637 -4.55e-4,0.10685 0.04278,0.18679 0.04454,0.0803 0.106569,0.1259 0.06164,0.0469 0.148112,0.0727 z"
         style="font-size:2.80000019px;fill:#ffffff;fill-opacity:1"
         id="path4496" />
      <path
         d="m 38.960739,315.88979 0.367069,-0.77012 0.223384,0.10647 -0.36707,0.77012 z"
         style="font-size:2.80000019px;fill:#ffffff;fill-opacity:1"
         id="path4498" />
      <path
         d="m 37.097429,317.5368 0.143482,-0.22955 1.487437,0.92973 -0.712099,-1.11259 0.08551,-0.13681 1.30994,0.15614 -1.487437,-0.92973 0.134061,-0.21448 1.726262,1.07901 -0.195658,0.31302 -1.248783,-0.14048 0.682827,1.04593 -0.19928,0.31882 z"
         style="font-size:2.80000019px;fill:#ffffff;fill-opacity:1"
         id="path4500" />
      <path
         d="m 37.120874,319.94483 -1.057086,-2.01174 0.17363,-0.213 0.31415,0.62297 1.510883,0.44668 -0.176222,0.21618 -1.173739,-0.35177 0.578559,1.08191 z"
         style="font-size:2.80000019px;fill:#ffffff;fill-opacity:1"
         id="path4502" />
      <path
         d="m 35.044372,320.69304 q -0.08331,-0.0849 -0.124688,-0.20711 -0.04236,-0.12125 -0.02761,-0.24873 0.01679,-0.13906 0.08673,-0.27665 0.06897,-0.13663 0.215349,-0.28026 0.157114,-0.15416 0.311727,-0.24841 0.153637,-0.0933 0.339921,-0.16307 l 0.237472,0.24201 -0.01366,0.0134 q -0.200282,0.0165 -0.393544,0.10842 -0.193263,0.0919 -0.320125,0.21643 -0.179559,0.17619 -0.213026,0.34119 -0.03444,0.16596 0.07567,0.27819 0.0948,0.0966 0.187619,0.0956 0.09185,-9e-5 0.213352,-0.0695 0.09234,-0.0523 0.190665,-0.12387 0.09735,-0.0706 0.212134,-0.14495 0.233437,-0.14861 0.423832,-0.14197 0.190377,0.009 0.346457,0.16764 0.179061,0.18249 0.138823,0.44991 -0.03928,0.26839 -0.276415,0.50107 -0.153211,0.15034 -0.309775,0.2465 -0.156564,0.0962 -0.297259,0.14994 l -0.224065,-0.22835 0.01366,-0.0134 q 0.151891,-0.0111 0.332541,-0.0984 0.180631,-0.0853 0.322131,-0.22415 0.155162,-0.15225 0.186623,-0.30953 0.03048,-0.15634 -0.0691,-0.25782 -0.08905,-0.0908 -0.186644,-0.0965 -0.09759,-0.006 -0.242481,0.0828 -0.07586,0.0476 -0.210164,0.1411 -0.134303,0.0935 -0.234432,0.15149 -0.204125,0.11602 -0.371319,0.1096 -0.167194,-0.006 -0.320401,-0.16255 z"
         style="font-size:2.80000019px;fill:#ffffff;fill-opacity:1"
         id="path4504" />
      <path
         d="m 32.559338,321.26313 q 0.05303,-0.0659 0.112397,-0.12108 0.05745,-0.0555 0.123949,-0.10582 0.189682,-0.14357 0.384447,-0.12638 0.19285,0.0169 0.349533,0.20354 0.02286,-0.0242 0.04711,-0.0442 0.02233,-0.0203 0.04523,-0.0377 0.171149,-0.12955 0.354682,-0.1793 0.182442,-0.0489 0.362241,-0.0153 0.179798,0.0337 0.352032,0.1502 0.171144,0.11738 0.323792,0.31905 0.150173,0.1984 0.216665,0.39499 0.06732,0.19767 0.05201,0.38586 -0.01507,0.17945 -0.113878,0.3434 -0.0999,0.16478 -0.267779,0.29185 -0.17442,0.13202 -0.356597,0.17903 -0.182443,0.0489 -0.359501,0.0166 -0.181714,-0.0339 -0.353683,-0.15239 -0.173059,-0.11764 -0.324882,-0.31822 -0.225259,-0.29761 -0.257464,-0.59387 -0.03329,-0.29545 0.109764,-0.53233 -0.09842,-0.12097 -0.204913,-0.14839 -0.10649,-0.0274 -0.250386,0.0815 -0.0447,0.0338 -0.09502,0.0942 -0.05224,0.0601 -0.07015,0.0908 l -0.02943,0.0223 z m 1.172333,1.01422 q 0.239287,0.31614 0.510548,0.38002 0.272085,0.065 0.517363,-0.12068 0.247459,-0.1873 0.258805,-0.46681 0.01108,-0.27759 -0.228205,-0.59372 -0.241762,-0.31941 -0.514378,-0.38055 -0.271791,-0.0601 -0.513798,0.12312 -0.242008,0.18318 -0.256919,0.46024 -0.01518,0.27898 0.226584,0.59838 z"
         style="font-size:2.80000019px;fill:#ffffff;fill-opacity:1"
         id="path4507" />
      <path
         d="m 31.409991,322.50594 1.110851,-0.65167 1.030081,1.7559 -0.233491,0.13697 -0.908325,-1.54835 -0.87736,0.5147 z"
         style="font-size:2.80000019px;fill:#ffffff;fill-opacity:1"
         id="path4509" />
      <path
         d="m 29.819844,324.03495 0.792299,-0.31636 0.09176,0.22982 -0.7923,0.31636 z"
         style="font-size:2.80000019px;fill:#ffffff;fill-opacity:1"
         id="path4511" />
      <path
         d="m 27.532911,324.45513 q -0.06309,-0.26044 0.06224,-0.43991 0.124002,-0.17915 0.391082,-0.24385 0.06378,-0.0154 0.172977,-0.0292 0.108876,-0.0151 0.184491,-0.0166 l 0.05955,0.24582 -0.01462,0.004 q -0.05899,-0.005 -0.143539,-0.006 -0.08455,-6.2e-4 -0.168266,0.0197 -0.122245,0.0296 -0.187238,0.0749 -0.06632,0.0456 -0.08832,0.1058 -0.023,0.0618 -0.01363,0.14117 0.008,0.0796 0.0325,0.18062 l 0.279719,1.15469 0.418558,-0.10139 0.05086,0.20994 -0.681652,0.16513 z"
         style="font-size:2.80000019px;fill:#ffffff;fill-opacity:1"
         id="path4513" />
      <path
         d="m 25.737383,324.21842 0.252962,-0.0371 0.02359,0.16097 q 0.03045,-0.0279 0.08247,-0.0784 0.05087,-0.0489 0.101409,-0.0812 0.05902,-0.0404 0.138563,-0.0728 0.07935,-0.0337 0.19027,-0.05 0.204264,-0.0299 0.366125,0.0845 0.161862,0.11446 0.192588,0.32414 0.02518,0.1718 -0.03241,0.28801 -0.05874,0.11777 -0.186446,0.19867 -0.129059,0.0811 -0.319329,0.13108 -0.19027,0.05 -0.410533,0.0933 l 0.0057,0.0392 q 0.01269,0.0866 0.05213,0.13883 0.03809,0.0525 0.09966,0.0766 0.05867,0.0232 0.136009,0.0229 0.07734,-2.8e-4 0.159856,-0.0124 0.100103,-0.0147 0.219237,-0.0598 0.119333,-0.0437 0.243214,-0.11302 l 0.01353,-0.002 0.03786,0.25837 q -0.07143,0.0312 -0.208544,0.0762 -0.137117,0.045 -0.273743,0.065 -0.159624,0.0234 -0.281277,0.0136 -0.122807,-0.008 -0.2187,-0.0592 -0.09434,-0.0497 -0.153453,-0.14194 -0.05911,-0.0922 -0.08052,-0.23831 z m 0.307477,0.33493 0.06165,0.4207 q 0.115344,-0.0238 0.271632,-0.0605 0.154936,-0.0365 0.243155,-0.0757 0.105013,-0.0472 0.162936,-0.12336 0.05812,-0.0749 0.04127,-0.18983 -0.01903,-0.12986 -0.107203,-0.18465 -0.08798,-0.0534 -0.248951,-0.0298 -0.133921,0.0196 -0.237312,0.0873 -0.103194,0.069 -0.187181,0.15594 z"
         style="font-size:2.80000019px;fill:#ffffff;fill-opacity:1"
         id="path4515" />
      <path
         d="m 24.010405,325.84395 0.550189,-1.55286 0.258149,-0.0114 0.680454,1.49866 -0.278636,0.0123 -0.526058,-1.19344 -0.415023,1.23488 z"
         style="font-size:2.80000019px;fill:#ffffff;fill-opacity:1"
         id="path4517" />
      <path
         d="m 22.475364,324.23937 0.255246,0.0146 -0.0093,0.16243 q 0.03545,-0.0213 0.09657,-0.0602 0.05967,-0.0377 0.115678,-0.0591 0.06595,-0.0277 0.150385,-0.0434 0.08451,-0.0171 0.196439,-0.0107 0.206108,0.0118 0.34161,0.15651 0.135502,0.1447 0.123385,0.35627 -0.0099,0.17335 -0.08973,0.27559 -0.08125,0.10353 -0.222626,0.15706 -0.142743,0.0534 -0.339182,0.0641 -0.196439,0.0107 -0.420916,0.009 l -0.0023,0.0396 q -0.005,0.0874 0.02311,0.14648 0.02675,0.0591 0.0822,0.0951 0.0528,0.0345 0.128612,0.0498 0.07581,0.0153 0.159074,0.0201 0.101006,0.006 0.22678,-0.0144 0.125696,-0.0188 0.260989,-0.0617 l 0.01365,7.8e-4 -0.01493,0.26071 q -0.07624,0.0162 -0.219607,0.0326 -0.143362,0.0164 -0.281222,0.009 -0.161064,-0.009 -0.278251,-0.0433 -0.11863,-0.0328 -0.202313,-0.10197 -0.0824,-0.0677 -0.121732,-0.16994 -0.03934,-0.10222 -0.03089,-0.24963 z m 0.233747,0.38998 -0.02431,0.4245 q 0.117776,-1.1e-4 0.278257,-0.005 0.159117,-0.005 0.253419,-0.0252 0.112359,-0.0251 0.184437,-0.088 0.072,-0.0616 0.07864,-0.17763 0.0075,-0.13104 -0.06783,-0.20245 -0.07541,-0.0701 -0.237843,-0.0794 -0.135131,-0.008 -0.250027,0.0377 -0.114975,0.0468 -0.214743,0.11506 z"
         style="font-size:2.80000019px;fill:#ffffff;fill-opacity:1"
         id="path4519" />
      <path
         d="m 20.402797,324.50923 q 0.02005,-0.11724 0.09488,-0.22234 0.07349,-0.10534 0.185462,-0.16803 0.122556,-0.0678 0.275048,-0.0917 0.151144,-0.0241 0.353288,0.0105 0.216969,0.0371 0.383902,0.10724 0.165585,0.0699 0.331226,0.18008 l -0.05714,0.33421 -0.01887,-0.003 q -0.130625,-0.15272 -0.318323,-0.25555 -0.187699,-0.10283 -0.362892,-0.13278 -0.247964,-0.0424 -0.401321,0.0271 -0.154704,0.0693 -0.181201,0.22423 -0.02281,0.13342 0.0324,0.20805 0.05386,0.0744 0.181282,0.13225 0.09646,0.0442 0.21206,0.082 0.114249,0.0376 0.241709,0.0871 0.257154,0.10222 0.363256,0.26045 0.104523,0.15935 0.06697,0.37901 -0.04309,0.25201 -0.283431,0.37598 -0.240575,0.12531 -0.56805,0.0693 -0.211578,-0.0362 -0.381206,-0.10679 -0.169627,-0.0706 -0.2956,-0.15318 l 0.05391,-0.31534 0.01887,0.003 q 0.09796,0.11662 0.274451,0.21198 0.174914,0.0965 0.370321,0.12989 0.214273,0.0366 0.360201,-0.03 0.144579,-0.0668 0.168542,-0.20698 0.02143,-0.12532 -0.03105,-0.20781 -0.05247,-0.0825 -0.209087,-0.1481 -0.08302,-0.0336 -0.237435,-0.0878 -0.154413,-0.0541 -0.26008,-0.10133 -0.213569,-0.0976 -0.306264,-0.23684 -0.09269,-0.1393 -0.05583,-0.35492 z"
         style="font-size:2.80000019px;fill:#ffffff;fill-opacity:1"
         id="path4521" />
      <path
         d="m 18.986712,323.61358 q 0.140402,-0.0243 0.261529,-0.0256 0.11981,-0.002 0.244799,0.0337 0.159197,0.045 0.279068,0.12858 0.119499,0.0849 0.187461,0.2064 0.06928,0.12187 0.08101,0.28147 0.01173,0.15959 -0.04292,0.35299 -0.101863,0.3605 -0.357209,0.50998 -0.256662,0.14911 -0.581633,0.0573 -0.126304,-0.0357 -0.237309,-0.10541 -0.11232,-0.0701 -0.199128,-0.15004 l 0.0777,-0.27497 0.01316,0.004 q 0.08824,0.12013 0.195899,0.20169 0.106342,0.0812 0.220806,0.11354 0.210507,0.0595 0.373015,-0.048 0.160821,-0.10657 0.238148,-0.38023 0.0751,-0.26577 -0.0028,-0.44263 -0.07958,-0.17593 -0.295346,-0.2369 -0.07499,-0.0212 -0.158194,-0.0234 -0.0832,-0.002 -0.15396,0.0119 -0.06175,0.0124 -0.117665,0.0293 -0.05629,0.0182 -0.09023,0.0328 l -0.01316,-0.004 z"
         style="font-size:2.80000019px;fill:#ffffff;fill-opacity:1"
         id="path4523" />
      <path
         d="m 17.371497,324.2384 0.0128,0.005 q 0.04895,0.033 0.09823,0.0573 0.04752,0.0251 0.116636,0.0511 0.111359,0.0418 0.233776,0.0308 0.121936,-0.01 0.247243,-0.0518 l 0.381,-1.01503 0.240637,0.0903 -0.536667,1.42974 -0.240638,-0.0903 0.07927,-0.2112 q -0.186599,0.0614 -0.313175,0.0679 -0.128336,0.007 -0.242255,-0.0354 -0.06272,-0.0235 -0.08944,-0.038 -0.0272,-0.0131 -0.08015,-0.0432 z"
         style="font-size:2.80000019px;fill:#ffffff;fill-opacity:1"
         id="path4525" />
      <path
         d="m 16.608636,324.47891 0.264575,0.11836 -0.108872,0.24336 -0.264574,-0.11836 z m 0.743021,-1.62068 0.234623,0.10496 -0.62364,1.39401 -0.234622,-0.10497 z"
         style="font-size:2.80000019px;fill:#ffffff;fill-opacity:1"
         id="path4527" />
      <path
         d="m 15.340258,322.69623 q 0.08902,-0.16325 0.209792,-0.27336 0.120121,-0.10891 0.256398,-0.15606 0.127657,-0.0456 0.262522,-0.0359 0.133011,0.0102 0.253044,0.0757 0.104428,0.0569 0.177215,0.12622 0.07159,0.0686 0.133029,0.16442 l 0.306323,-0.56176 0.225661,0.12306 -1.000784,1.8353 -0.225662,-0.12306 0.07658,-0.14044 q -0.13126,0.0265 -0.270381,0.0161 -0.140976,-0.01 -0.268211,-0.0793 -0.242466,-0.13221 -0.276759,-0.38917 -0.03615,-0.25641 0.141232,-0.5817 z m 0.236136,0.12098 q -0.132216,0.24246 -0.114847,0.40766 0.01737,0.16519 0.189016,0.25879 0.09723,0.053 0.218562,0.0647 0.121335,0.0117 0.248668,-0.008 l 0.414321,-0.7598 q -0.07246,-0.0956 -0.132372,-0.14849 -0.06111,-0.0536 -0.148734,-0.10135 -0.188451,-0.10276 -0.363461,-0.0331 -0.175009,0.0696 -0.311153,0.31931 z"
         style="font-size:2.80000019px;fill:#ffffff;fill-opacity:1"
         id="path4529" />
      <path
         d="m 14.713913,321.35717 q 0.0709,0.0243 0.149383,0.0618 0.07734,0.0368 0.133073,0.074 0.194487,0.12974 0.225909,0.3019 0.03142,0.17216 -0.122597,0.40304 l -0.450676,0.67559 0.144443,0.0963 -0.119876,0.1797 -0.144443,-0.0964 -0.243547,0.36509 -0.213821,-0.14264 0.243547,-0.36509 -0.441291,-0.29438 0.119877,-0.1797 0.44129,0.29438 0.386185,-0.57891 q 0.06677,-0.10009 0.100154,-0.15999 0.03263,-0.0588 0.03796,-0.12588 0.0053,-0.0622 -0.02348,-0.11263 -0.0307,-0.0501 -0.12055,-0.11 -0.05232,-0.0349 -0.119049,-0.0581 -0.06749,-0.022 -0.09934,-0.0285 l -0.01137,-0.008 z"
         style="font-size:2.80000019px;fill:#ffffff;fill-opacity:1"
         id="path4531" />
      <path
         d="m 12.584286,320.58803 0.639345,0.56485 -0.163844,0.18545 -0.639345,-0.56485 z"
         style="font-size:2.80000019px;fill:#ffffff;fill-opacity:1"
         id="path4533" />
      <path
         d="m 10.423287,319.78798 0.190365,0.21857 -0.201038,0.1751 -0.190365,-0.21857 z m 1.382993,-1.18279 q 0.202069,-0.176 0.394961,-0.1627 0.192891,0.0133 0.343746,0.18651 0.03592,0.0412 0.08693,0.11646 0.05012,0.0742 0.07726,0.13034 l -0.184543,0.16073 -0.009,-0.0103 q -0.0138,-0.0388 -0.04157,-0.0998 -0.02867,-0.0621 -0.06907,-0.10845 -0.06465,-0.0742 -0.124782,-0.10164 -0.06013,-0.0274 -0.121122,-0.0142 -0.06099,0.0132 -0.125146,0.0582 -0.06402,0.0431 -0.147528,0.1158 l -0.927871,0.80815 0.209222,0.24022 -0.162893,0.14188 -0.378036,-0.43404 z"
         style="font-size:2.80000019px;fill:#ffffff;fill-opacity:1"
         id="path4535" />
      <path
         d="m 10.785533,316.46688 q 0.06425,0.055 0.117668,0.11597 0.05375,0.0591 0.102068,0.12705 0.137836,0.19389 0.114833,0.38806 -0.02268,0.19226 -0.213899,0.34329 0.02347,0.0236 0.0428,0.0484 0.01966,0.0229 0.03629,0.0463 0.12437,0.17495 0.168615,0.35989 0.04345,0.18382 0.0044,0.36253 -0.03902,0.17871 -0.160666,0.34739 -0.122436,0.16755 -0.328582,0.3141 -0.202804,0.14418 -0.401288,0.20476 -0.199598,0.0614 -0.3872506,0.0405 -0.1789124,-0.0204 -0.3398377,-0.1241 -0.1617175,-0.10478 -0.2837109,-0.27638 -0.1267463,-0.17829 -0.168293,-0.36179 -0.043453,-0.18382 -0.00587,-0.35984 0.039343,-0.18062 0.162894,-0.34897 0.1227582,-0.16946 0.3277904,-0.31522 0.3042055,-0.21626 0.601303,-0.23959 0.296306,-0.0245 0.528805,0.12563 0.123863,-0.0948 0.154456,-0.20039 0.03059,-0.10562 -0.07397,-0.25271 -0.03248,-0.0457 -0.09133,-0.0978 -0.05852,-0.054 -0.08868,-0.0728 l -0.02139,-0.0301 z m -1.048814,1.14149 q -0.3231487,0.22972 -0.3951132,0.49895 -0.073079,0.27003 0.1051581,0.52074 0.1798214,0.25295 0.4588631,0.27265 0.277135,0.0194 0.600284,-0.21035 0.326491,-0.23211 0.395757,-0.50277 0.06815,-0.26988 -0.107709,-0.51725 -0.17586,-0.24738 -0.452351,-0.27057 -0.278397,-0.0235 -0.604889,0.2086 z"
         style="font-size:2.80000019px;fill:#ffffff;fill-opacity:1"
         id="path4537" />
      <path
         d="m 9.6022125,315.31578 0.1218285,0.22632 -0.149278,0.0804 q 0.1518514,0.0658 0.2563838,0.14458 0.1045323,0.0788 0.1725752,0.20521 0.114052,0.21188 0.04875,0.3992 -0.06651,0.18796 -0.316912,0.32275 l -0.8727948,0.46982 -0.1218285,-0.22632 0.7656517,-0.41215 q 0.1023276,-0.0551 0.1705786,-0.10424 0.067047,-0.0485 0.1019642,-0.10768 0.035473,-0.061 0.031685,-0.12574 -0.00379,-0.0647 -0.056926,-0.16344 -0.047306,-0.0879 -0.1487823,-0.16679 -0.1021246,-0.0801 -0.2217539,-0.13217 l -1.0040149,0.54045 -0.1218286,-0.22632 z"
         style="font-size:2.80000019px;fill:#ffffff;fill-opacity:1"
         id="path4539" />
      <path
         d="m 8.2250934,313.94905 0.4234324,1.04248 q 0.1304686,-0.053 0.212054,-0.13187 0.080319,-0.0784 0.1146033,-0.17199 0.034047,-0.0906 0.027918,-0.19284 -0.00664,-0.10355 -0.05089,-0.21249 -0.058653,-0.1444 -0.1748211,-0.26691 -0.1179494,-0.12327 -0.198894,-0.1627 l -0.00515,-0.0127 0.2596707,-0.10547 q 0.099545,0.0997 0.1846806,0.21126 0.085136,0.11151 0.1412163,0.24958 0.1430306,0.35214 0.03329,0.62692 -0.1110078,0.27529 -0.4618798,0.41781 -0.3470719,0.14097 -0.6276687,0.0351 -0.2811112,-0.10717 -0.4066488,-0.41624 -0.1162767,-0.28627 -0.011843,-0.50872 0.1039192,-0.22372 0.4117239,-0.34874 z m -0.088249,0.30589 q -0.186955,0.0774 -0.2514837,0.21282 -0.065043,0.13415 0.012132,0.32415 0.077689,0.19127 0.2367292,0.25948 0.1585254,0.0669 0.3319019,0.0142 z"
         style="font-size:2.80000019px;fill:#ffffff;fill-opacity:1"
         id="path4541" />
      <path
         d="m 7.3219413,312.75027 0.00398,0.0131 q 0.00365,0.0589 0.014349,0.11282 0.00899,0.053 0.030501,0.12362 0.034651,0.11379 0.1179196,0.2042 0.081961,0.0908 0.1916135,0.1646 l 1.0371549,-0.31584 0.074878,0.24588 -1.4609106,0.44488 -0.074878,-0.24588 0.2158014,-0.0657 q -0.1623179,-0.11063 -0.244564,-0.20707 -0.083952,-0.0973 -0.1193998,-0.21374 -0.019516,-0.0641 -0.024355,-0.0941 -0.00615,-0.0296 -0.014516,-0.0899 z"
         style="font-size:2.80000019px;fill:#ffffff;fill-opacity:1"
         id="path4543" />
      <path
         d="m 6.6904651,311.16805 2.2284639,0.44548 0.056149,0.26901 -0.681773,-0.1482 -1.2983506,0.89251 -0.056987,-0.27303 1.0123331,-0.69035 -1.2048038,-0.23177 z"
         style="font-size:2.80000019px;fill:#ffffff;fill-opacity:1"
         id="path4545" />
      <path
         d="m 7.2342333,308.77398 0.045069,0.85193 -0.2471154,0.0131 -0.045068,-0.85193 z"
         style="font-size:2.80000019px;fill:#ffffff;fill-opacity:1"
         id="path4547" />
      <path
         d="m 8.1888957,305.66659 -0.030628,0.28684 -0.5853685,0.13824 -0.093479,0.8755 0.5429835,0.25872 -0.029176,0.27325 -1.9455627,-0.95296 0.038321,-0.3589 z m -0.8559587,0.48334 -1.0316507,0.24871 0.955735,0.46228 z"
         style="font-size:2.80000019px;fill:#ffffff;fill-opacity:1"
         id="path4549" />
      <path
         d="m 7.8991356,304.52593 q 0.2623143,0.0547 0.370653,0.24497 0.108618,0.18888 0.052463,0.45788 -0.01341,0.0642 -0.047805,0.16879 -0.033057,0.10484 -0.064203,0.17375 l -0.2475926,-0.0517 0.00307,-0.0147 q 0.030191,-0.051 0.067029,-0.12707 0.036838,-0.0761 0.054438,-0.16043 0.025703,-0.12312 0.012684,-0.20126 -0.012739,-0.0795 -0.057671,-0.12517 -0.04599,-0.0473 -0.1216584,-0.0729 -0.075389,-0.0269 -0.1771023,-0.0481 l -1.1630163,-0.24277 -0.088004,0.42157 -0.2114575,-0.0441 0.1433205,-0.68657 z"
         style="font-size:2.80000019px;fill:#ffffff;fill-opacity:1"
         id="path4551" />
      <path
         d="m 9.0168931,302.59904 -0.086846,0.2751 -0.6011535,0.0195 -0.2650658,0.83962 0.4809684,0.36116 -0.08273,0.26205 -1.7182171,-1.3195 0.1086605,-0.34419 z m -0.9347461,0.30419 -1.0604752,0.0394 0.8452121,0.64246 z"
         style="font-size:2.80000019px;fill:#ffffff;fill-opacity:1"
         id="path4553" />
      <path
         d="m 7.9303616,300.05793 0.6254897,1.056 1.2273974,-0.21276 -0.1294946,0.28505 -0.9926243,0.15873 0.5278008,0.86446 -0.1221434,0.26887 -0.6326205,-1.06674 -1.2140464,0.20981 0.1289292,-0.28381 0.9798387,-0.15703 -0.5212355,-0.85247 z"
         style="font-size:2.80000019px;fill:#ffffff;fill-opacity:1"
         id="path4555" />
      <path
         d="m 10.275791,298.65614 -0.4732577,0.70982 -0.2058944,-0.13727 0.4732581,-0.70982 z"
         style="font-size:2.80000019px;fill:#ffffff;fill-opacity:1"
         id="path4557" />
      <path
         d="m 12.771869,296.66283 q -0.02724,0.0774 -0.04816,0.14197 -0.01999,0.0636 -0.06407,0.15706 -0.03783,0.0787 -0.09191,0.16288 -0.05215,0.0841 -0.132285,0.17012 -0.150951,0.16208 -0.319902,0.25321 -0.169019,0.0892 -0.357382,0.0969 -0.184497,0.008 -0.380884,-0.0745 -0.197387,-0.083 -0.39148,-0.26372 -0.184088,-0.17145 -0.280704,-0.35858 -0.09662,-0.18714 -0.105347,-0.37836 -0.0085,-0.18543 0.06531,-0.36702 0.07477,-0.18258 0.227583,-0.34666 0.111815,-0.12006 0.251713,-0.2121 0.14083,-0.093 0.349907,-0.17108 l 0.235112,0.21897 -0.01398,0.015 q -0.21766,0.0271 -0.37743,0.10435 -0.15977,0.0773 -0.288358,0.21533 -0.105293,0.11305 -0.153069,0.23857 -0.04784,0.12359 -0.03697,0.26637 0.01074,0.13892 0.08946,0.28509 0.07865,0.14425 0.228718,0.28402 0.157075,0.14629 0.309265,0.20956 0.153121,0.0623 0.286585,0.0614 0.139261,-0.001 0.261936,-0.0606 0.122605,-0.0614 0.219512,-0.16548 0.133247,-0.14307 0.200699,-0.31379 0.06745,-0.17072 0.07097,-0.37108 l 0.01304,-0.014 z"
         style="font-size:2.80000019px;fill:#ffffff;fill-opacity:1"
         id="path4559" />
      <path
         d="m 14.00112,294.79344 -0.575191,0.47366 0.473662,0.57519 -0.175195,0.14427 -0.473662,-0.57519 -0.575191,0.47367 -0.139056,-0.16887 0.57519,-0.47366 -0.473662,-0.57519 0.175195,-0.14427 0.473663,0.57519 0.57519,-0.47366 z"
         style="font-size:2.80000019px;fill:#ffffff;fill-opacity:1"
         id="path4561" />
      <path
         d="m 16.029682,293.50297 -0.63676,0.38696 0.386958,0.63676 -0.193949,0.11786 -0.386958,-0.63676 -0.63676,0.38696 -0.113602,-0.18694 0.63676,-0.38696 -0.386958,-0.63676 0.193949,-0.11786 0.386958,0.63676 0.63676,-0.38696 z"
         style="font-size:2.80000019px;fill:#ffffff;fill-opacity:1"
         id="path4563" />
      <path
         d="m 18.296171,292.52259 -0.794623,0.31048 -0.09006,-0.23049 0.794623,-0.31048 z"
         style="font-size:2.80000019px;fill:#ffffff;fill-opacity:1"
         id="path4565" />
      <path
         d="m 21.485178,292.32336 q -0.06676,0.0477 -0.120998,0.0885 -0.0529,0.0405 -0.142681,0.0917 -0.0762,0.0427 -0.168819,0.0805 -0.09099,0.0388 -0.20602,0.0632 -0.216674,0.0459 -0.407313,0.0234 -0.189585,-0.0241 -0.348148,-0.12608 -0.15532,-0.0999 -0.268918,-0.27983 -0.113881,-0.18131 -0.168857,-0.44079 -0.05214,-0.2461 -0.02368,-0.45477 0.02846,-0.20867 0.131198,-0.37019 0.09957,-0.15666 0.264347,-0.26285 0.16611,-0.10646 0.385459,-0.15294 0.1605,-0.034 0.32788,-0.0289 0.168718,0.005 0.384679,0.0611 l 0.06659,0.31431 -0.02006,0.004 q -0.1937,-0.1029 -0.368856,-0.13148 -0.175156,-0.0286 -0.35973,0.0105 -0.151138,0.032 -0.262365,0.1073 -0.110173,0.0736 -0.183316,0.19676 -0.07103,0.11987 -0.09061,0.28473 -0.01852,0.16324 0.02399,0.36387 0.04449,0.20998 0.132687,0.34922 0.08953,0.13895 0.199266,0.21493 0.114594,0.0791 0.249183,0.10093 0.135643,0.0202 0.274743,-0.009 0.191262,-0.0405 0.344564,-0.14149 0.153301,-0.10096 0.271318,-0.26292 l 0.01872,-0.004 z"
         style="font-size:2.80000019px;fill:#ffffff;fill-opacity:1"
         id="path4567" />
      <path
         d="m 23.549398,291.00927 -0.453958,0.0346 -0.08637,0.52213 0.419877,-0.032 0.01402,0.18404 -0.467591,0.0356 -0.09805,0.58473 -0.175857,0.0134 0.09805,-0.58472 -0.368074,0.028 -0.09805,0.58473 -0.175858,0.0134 0.09805,-0.58472 -0.406244,0.031 -0.01402,-0.18404 0.453957,-0.0346 0.08637,-0.52214 -0.419877,0.032 -0.01402,-0.18403 0.46759,-0.0356 0.09931,-0.58619 0.175857,-0.0134 -0.09931,0.58619 0.368074,-0.028 0.09931,-0.58619 0.175858,-0.0134 -0.09931,0.58619 0.406244,-0.031 z m -0.625933,0.0449 -0.373527,0.0285 -0.08868,0.5278 0.373527,-0.0285 z"
         style="font-size:2.80000019px;fill:#ffffff;fill-opacity:1"
         id="path4569" />
      <path
         d="m 26.029536,291.64925 -0.849291,-0.0808 0.02343,-0.24635 0.849291,0.0808 z"
         style="font-size:2.80000019px;fill:#ffffff;fill-opacity:1"
         id="path4571" />
      <path
         d="m 28.656227,292.96796 -1.249345,-0.31273 0.494324,-1.97481 0.262601,0.0657 -0.435895,1.74139 0.986744,0.247 z"
         style="font-size:2.80000019px;fill:#ffffff;fill-opacity:1"
         id="path4573" />
      <path
         d="m 29.710483,291.45376 -0.275286,-0.0907 0.08343,-0.25321 0.275286,0.0907 z m -0.573502,1.68813 -0.244121,-0.0804 0.477911,-1.45044 0.244121,0.0804 z"
         style="font-size:2.80000019px;fill:#ffffff;fill-opacity:1"
         id="path4575" />
      <path
         d="m 30.78997,293.7936 -0.236944,-0.0996 0.336991,-0.80157 q 0.0408,-0.097 0.06496,-0.18626 0.02469,-0.0905 0.01457,-0.15108 -0.0093,-0.0662 -0.05789,-0.11629 -0.04811,-0.0514 -0.142634,-0.0911 -0.09705,-0.0408 -0.223049,-0.0374 -0.126003,0.003 -0.25431,0.0369 l -0.441903,1.05112 -0.236943,-0.0996 0.591852,-1.4078 0.236944,0.0996 -0.0657,0.15629 q 0.14959,-0.0454 0.289786,-0.0473 0.140196,-0.002 0.264969,0.0506 0.228121,0.0959 0.290099,0.28362 0.06198,0.18771 -0.04664,0.44608 z"
         style="font-size:2.80000019px;fill:#ffffff;fill-opacity:1"
         id="path4577" />
      <path
         d="m 32.340976,294.62872 -0.224427,-0.12529 0.08264,-0.14803 q -0.163391,0.0262 -0.293905,0.016 -0.130515,-0.0102 -0.255859,-0.0802 -0.210102,-0.1173 -0.255781,-0.31034 -0.04501,-0.19424 0.09361,-0.44254 l 0.483168,-0.86547 0.224427,0.12529 -0.423855,0.75923 q -0.05665,0.10147 -0.08775,0.17962 -0.03044,0.077 -0.02806,0.14561 0.0029,0.0705 0.04091,0.12306 0.038,0.0525 0.135891,0.10718 0.08714,0.0487 0.215133,0.0606 0.129182,0.0126 0.258033,-0.008 l 0.555811,-0.9956 0.224426,0.12529 z"
         style="font-size:2.80000019px;fill:#ffffff;fill-opacity:1"
         id="path4579" />
      <path
         d="m 33.846769,295.66592 -0.264417,-0.18728 -0.01467,-0.72913 -0.694908,0.22655 -0.244335,-0.17306 0.926591,-0.2769 -0.03945,-0.96616 0.264417,0.18728 0.01797,0.71974 0.68603,-0.22111 0.24545,0.17385 -0.924407,0.26672 z"
         style="font-size:2.80000019px;fill:#ffffff;fill-opacity:1"
         id="path4581" />
      <path
         d="m 36.322245,297.1767 q -0.08437,0.0839 -0.206312,0.126 -0.120979,0.0431 -0.248547,0.0292 -0.139162,-0.0159 -0.277192,-0.085 -0.137066,-0.0681 -0.281625,-0.21356 -0.155159,-0.15614 -0.250387,-0.31015 -0.09426,-0.15304 -0.165222,-0.33888 l 0.240501,-0.239 0.01349,0.0136 q 0.01774,0.20017 0.110916,0.39285 0.09317,0.19267 0.218457,0.31874 0.177325,0.17844 0.342539,0.21085 0.166177,0.0334 0.277699,-0.0774 0.09601,-0.0954 0.09436,-0.18822 -6.8e-4,-0.0918 -0.07087,-0.2129 -0.05288,-0.092 -0.125085,-0.18988 -0.07124,-0.0969 -0.146287,-0.21121 -0.150087,-0.23249 -0.144658,-0.42292 0.0074,-0.19043 0.165433,-0.34751 0.181346,-0.18022 0.449016,-0.14168 0.26864,0.0376 0.502824,0.27323 0.151305,0.15225 0.24846,0.3082 0.09716,0.15595 0.151821,0.2963 l -0.226924,0.22551 -0.01349,-0.0136 q -0.01209,-0.15182 -0.100472,-0.33191 -0.08644,-0.18009 -0.226185,-0.32071 -0.153232,-0.15419 -0.310717,-0.18465 -0.156522,-0.0295 -0.257377,0.0707 -0.09019,0.0896 -0.09533,0.18725 -0.0051,0.0976 0.08432,0.24195 0.0481,0.0756 0.142425,0.20926 0.09432,0.13371 0.152985,0.23347 0.117308,0.20338 0.111952,0.37061 -0.0054,0.16724 -0.160518,0.32143 z"
         style="font-size:2.80000019px;fill:#ffffff;fill-opacity:1"
         id="path4583" />
      <path
         d="m 37.549182,298.44781 -0.699575,-0.88128 q -0.110294,0.0876 -0.166396,0.1862 -0.05503,0.0978 -0.0616,0.19728 -0.0072,0.0965 0.02745,0.19291 0.0355,0.0975 0.108605,0.18959 0.0969,0.12207 0.242844,0.20696 0.147861,0.0851 0.236629,0.10019 l 0.0085,0.0107 -0.219518,0.17426 q -0.123585,-0.0677 -0.23665,-0.15079 -0.113065,-0.0831 -0.205719,-0.19978 -0.236308,-0.29768 -0.20829,-0.59223 0.02909,-0.29541 0.325705,-0.53087 0.293404,-0.2329 0.59246,-0.21021 0.299906,0.0238 0.507314,0.28505 0.192107,0.24201 0.154462,0.48485 -0.03679,0.24391 -0.297002,0.45047 z m -0.0014,-0.31836 q 0.157631,-0.12687 0.181465,-0.27497 0.02468,-0.14702 -0.10282,-0.30764 -0.128355,-0.1617 -0.30016,-0.18242 -0.170956,-0.0197 -0.322504,0.0797 z"
         style="font-size:2.80000019px;fill:#ffffff;fill-opacity:1"
         id="path4585" />
      <path
         d="m 38.753466,299.34239 -0.0075,-0.0114 q -0.02013,-0.0555 -0.0456,-0.10418 -0.02358,-0.0483 -0.06415,-0.11 -0.06535,-0.0994 -0.170749,-0.16261 -0.104255,-0.064 -0.230276,-0.10384 l -0.90587,0.59569 -0.141223,-0.21476 1.275987,-0.83907 0.141222,0.21476 -0.188485,0.12394 q 0.186943,0.0603 0.293059,0.12964 0.108011,0.0697 0.174866,0.17137 0.03681,0.056 0.04991,0.0833 0.01424,0.0266 0.0393,0.0822 z"
         style="font-size:2.80000019px;fill:#ffffff;fill-opacity:1"
         id="path4587" />
      <path
         d="m 39.806135,300.6797 -1.637737,0.17856 -0.122318,-0.22762 1.054623,-1.26364 0.132026,0.24568 -0.846702,0.99204 1.292613,-0.16227 z"
         style="font-size:2.80000019px;fill:#ffffff;fill-opacity:1"
         id="path4589" />
      <path
         d="m 39.754601,302.59457 -0.427181,-1.04095 q -0.130277,0.0535 -0.211578,0.13264 -0.08004,0.0786 -0.113984,0.17239 -0.03372,0.0907 -0.02722,0.19294 0.007,0.10353 0.05165,0.2123 0.05917,0.14419 0.175781,0.26629 0.118392,0.12284 0.199478,0.16198 l 0.0052,0.0127 -0.25929,0.10641 q -0.0999,-0.0994 -0.18544,-0.2106 -0.08554,-0.11121 -0.142113,-0.24907 -0.144297,-0.35162 -0.03555,-0.6268 0.110017,-0.27569 0.460374,-0.41946 0.346562,-0.14222 0.627538,-0.0373 0.281495,0.10615 0.408144,0.41477 0.117306,0.28585 0.01367,0.50868 -0.103114,0.22408 -0.410466,0.35021 z m 0.08715,-0.30621 q 0.186675,-0.0781 0.250716,-0.21372 0.06456,-0.13438 -0.0133,-0.3241 -0.07838,-0.19099 -0.237662,-0.25863 -0.158765,-0.0664 -0.331951,-0.013 z"
         style="font-size:2.80000019px;fill:#ffffff;fill-opacity:1"
         id="path4591" />
      <path
         d="m 40.662087,303.79015 -0.004,-0.0131 q -0.0039,-0.0589 -0.01476,-0.11278 -0.0092,-0.053 -0.03095,-0.12351 -0.03506,-0.11366 -0.118655,-0.20376 -0.08229,-0.0905 -0.192205,-0.16391 l -1.03601,0.31957 -0.07576,-0.24561 1.459298,-0.45015 0.07576,0.24562 -0.215563,0.0665 q 0.162716,0.11005 0.245309,0.20619 0.0843,0.097 0.12017,0.21331 0.01975,0.064 0.02469,0.094 0.0063,0.0295 0.01484,0.0899 z"
         style="font-size:2.80000019px;fill:#ffffff;fill-opacity:1"
         id="path4593" />
      <path
         d="m 40.191146,305.36779 q -0.204339,0.0447 -0.372361,-0.0962 -0.167729,-0.13963 -0.231771,-0.43211 -0.03626,-0.16561 -0.02794,-0.31299 0.0099,-0.14633 0.03622,-0.25005 l 0.281801,-0.0617 0.0029,0.0134 q -0.06346,0.13846 -0.085,0.29573 -0.02021,0.15698 0.009,0.29053 0.03626,0.16561 0.110153,0.2474 0.07389,0.0818 0.188749,0.0566 0.08815,-0.0193 0.122442,-0.08 0.0343,-0.0607 0.03477,-0.21195 3.23e-4,-0.056 -0.0027,-0.14637 -0.0027,-0.089 5.1e-4,-0.16387 0.0091,-0.20773 0.09114,-0.31246 0.08366,-0.10369 0.230574,-0.13586 0.09215,-0.0202 0.18181,-6.2e-4 0.08995,0.0209 0.171015,0.0843 0.07915,0.061 0.140356,0.16801 0.06284,0.108 0.09413,0.2509 0.02924,0.13356 0.02568,0.27709 -0.0019,0.14458 -0.02879,0.24564 l -0.268445,0.0588 -0.0029,-0.0134 q 0.04973,-0.11166 0.06769,-0.25975 0.0193,-0.14838 -0.0097,-0.2806 -0.03012,-0.13756 -0.104304,-0.22069 -0.07285,-0.0834 -0.177021,-0.0606 -0.09215,0.0202 -0.126323,0.0878 -0.03446,0.0663 -0.03636,0.19831 -8.2e-4,0.0729 0.0019,0.16194 0.003,0.0903 0.0022,0.15067 -0.0018,0.18373 -0.07849,0.2999 -0.07807,0.11647 -0.241005,0.15214 z"
         style="font-size:2.80000019px;fill:#ffffff;fill-opacity:1"
         id="path4595" />
      <path
         d="m 40.756294,307.55981 -0.05845,-0.85112 0.246879,-0.017 0.05845,0.85112 z"
         style="font-size:2.80000019px;fill:#ffffff;fill-opacity:1"
         id="path4597" />
    </g>
  </g>
</svg>
